<svg xmlns="http://www.w3.org/2000/svg" xmlns:xlink="http://www.w3.org/1999/xlink" width="110" height="110" viewBox="0 0 110 110">
  <defs>
    <linearGradient id="linear-gradient" x1="0.5" y1="1" x2="0.5" gradientUnits="objectBoundingBox">
      <stop offset="0" stop-color="#ff7676"/>
      <stop offset="1" stop-color="#ffae4e"/>
    </linearGradient>
    <filter id="Ellipse_1" x="0" y="0" width="110" height="110" filterUnits="userSpaceOnUse">
      <feOffset dy="8" input="SourceAlpha"/>
      <feGaussianBlur stdDeviation="7.5" result="blur"/>
      <feFlood flood-color="#ff6262" flood-opacity="0.341"/>
      <feComposite operator="in" in2="blur"/>
      <feComposite in="SourceGraphic"/>
    </filter>
    <linearGradient id="linear-gradient-2" x1="0.386" y1="1.08" x2="0.386" y2="-0.063" gradientUnits="objectBoundingBox">
      <stop offset="0" stop-color="#fff" stop-opacity="0.502"/>
      <stop offset="1" stop-color="#fff"/>
    </linearGradient>
    <filter id="clothes" x="28.5" y="24.5" width="55.499" height="55.5" filterUnits="userSpaceOnUse">
      <feOffset dy="8" input="SourceAlpha"/>
      <feGaussianBlur stdDeviation="3" result="blur-2"/>
      <feFlood flood-color="#ff4e00"/>
      <feComposite operator="in" in2="blur-2"/>
      <feComposite in="SourceGraphic"/>
    </filter>
  </defs>
  <g id="Apparel" transform="translate(22.5 14.5)">
    <g id="icon" transform="translate(-25 -140)">
      <g transform="matrix(1, 0, 0, 1, 2.5, 125.5)" filter="url(#Ellipse_1)">
        <circle id="Ellipse_1-2" data-name="Ellipse 1" cx="32.5" cy="32.5" r="32.5" transform="translate(22.5 14.5)" fill="url(#linear-gradient)"/>
      </g>
      <g transform="matrix(1, 0, 0, 1, 2.5, 125.5)" filter="url(#clothes)">
        <path id="clothes-2" data-name="clothes" d="M-15.959-114.5a3.278,3.278,0,0,0,.2-1.1,3.268,3.268,0,0,0-.857-2.2,3.27,3.27,0,0,0,.857-2.2,3.268,3.268,0,0,0-.857-2.2,3.27,3.27,0,0,0,.857-2.2,3.3,3.3,0,0,0-3.3-3.3H-31.137v-4.468h-3.3a1.1,1.1,0,0,1-1.1-1.1v-8.862a1.1,1.1,0,0,1,1.1-1.1h10.727l3.556-1.778v-1.517a1.1,1.1,0,0,1,1.1-1.1,1.1,1.1,0,0,0,1.1-1.1,1.1,1.1,0,0,0-1.1-1.1,1.1,1.1,0,0,0-1.1,1.1,1.1,1.1,0,0,1-1.1,1.1,1.1,1.1,0,0,1-1.1-1.1,3.3,3.3,0,0,1,3.3-3.3,3.3,3.3,0,0,1,3.3,3.3,3.3,3.3,0,0,1-2.2,3.109v.607l3.556,1.778H-3.6a1.1,1.1,0,0,1,1.1,1.1v8.862a1.1,1.1,0,0,1-1.1,1.1h-3.3V-115.6a1.1,1.1,0,0,1-1.1,1.1Zm-6.324-26.966a3.3,3.3,0,0,0,3.23,2.65,3.3,3.3,0,0,0,3.231-2.65l-3.231-1.615ZM-38.9-114.5a1.1,1.1,0,0,1-1.1-1.1,1.1,1.1,0,0,1,1.1-1.1h19.849a1.1,1.1,0,0,1,1.1,1.1,1.1,1.1,0,0,1-1.1,1.1Zm0-4.395a1.1,1.1,0,0,1-1.1-1.1,1.1,1.1,0,0,1,1.1-1.1h19.849a1.1,1.1,0,0,1,1.1,1.1,1.1,1.1,0,0,1-1.1,1.1Zm0-4.395a1.1,1.1,0,0,1-1.1-1.1,1.1,1.1,0,0,1,1.1-1.1h19.849a1.1,1.1,0,0,1,1.1,1.1,1.1,1.1,0,0,1-1.1,1.1Z" transform="translate(77.5 177.5)" fill="url(#linear-gradient-2)"/>
      </g>
    </g>
  </g>
</svg>
