<svg xmlns="http://www.w3.org/2000/svg" xmlns:xlink="http://www.w3.org/1999/xlink" width="51.032" height="55.5" viewBox="0 0 51.032 55.5">
  <defs>
    <linearGradient id="linear-gradient" x1="0.386" y1="1.08" x2="0.386" y2="-0.063" gradientUnits="objectBoundingBox">
      <stop offset="0" stop-color="#fff" stop-opacity="0.502"/>
      <stop offset="1" stop-color="#fff"/>
    </linearGradient>
    <filter id="Path_6" x="0" y="0" width="51.032" height="55.5" filterUnits="userSpaceOnUse">
      <feOffset dy="8" input="SourceAlpha"/>
      <feGaussianBlur stdDeviation="3" result="blur"/>
      <feFlood flood-color="#ff4e00"/>
      <feComposite operator="in" in2="blur"/>
      <feComposite in="SourceGraphic"/>
    </filter>
  </defs>
  <g transform="matrix(1, 0, 0, 1, 0, 0)" filter="url(#Path_6)">
    <path id="Path_6-2" data-name="Path 6" d="M92.934,8.789h-10.8L78.578,7.011V6.4A3.3,3.3,0,1,0,74.184,3.3a1.1,1.1,0,1,0,2.2,0,1.1,1.1,0,1,1,1.1,1.1,1.1,1.1,0,0,0-1.1,1.1V7.011L72.825,8.789H62.1a1.1,1.1,0,0,0-1.1,1.1V18.75a1.1,1.1,0,0,0,1.1,1.1h3.3v4.468H77.479a3.282,3.282,0,0,1,2.439,5.493,3.245,3.245,0,0,1,0,4.395,3.194,3.194,0,0,1,.655,3.3h7.966a1.1,1.1,0,0,0,1.1-1.1V19.849h3.3a1.1,1.1,0,0,0,1.1-1.1V9.888A1.1,1.1,0,0,0,92.934,8.789ZM77.479,13.184a3.3,3.3,0,0,1-3.231-2.65l3.231-1.615,3.231,1.615A3.3,3.3,0,0,1,77.479,13.184Zm0,0" transform="translate(-52 1)" fill="url(#linear-gradient)"/>
  </g>
</svg>
